<?xml version="1.0" standalone="no"?>
<!DOCTYPE svg PUBLIC "-//W3C//DTD SVG 20010904//EN"
 "http://www.w3.org/TR/2001/REC-SVG-20010904/DTD/svg10.dtd">
<svg version="1.0" xmlns="http://www.w3.org/2000/svg"
 width="1500.000000pt" height="500.000000pt" viewBox="0 0 1500.000000 500.000000"
 preserveAspectRatio="xMidYMid meet">

<g transform="translate(0.000000,500.000000) scale(0.100000,-0.100000)"
fill="#000000" stroke="none">
<path d="M4905 4276 c-60 -28 -97 -66 -124 -126 -70 -155 52 -340 224 -340
172 0 294 185 224 340 -41 91 -129 150 -224 150 -32 0 -68 -9 -100 -24z m153
-90 c52 -27 75 -62 79 -118 5 -65 -18 -113 -68 -140 -66 -35 -146 -12 -181 53
-25 44 -20 129 8 160 49 55 110 72 162 45z"/>
<path d="M6585 4276 c-60 -28 -97 -66 -124 -126 -70 -155 52 -340 224 -340
172 0 294 185 224 340 -41 91 -129 150 -224 150 -32 0 -68 -9 -100 -24z m153
-90 c52 -27 75 -62 79 -118 5 -65 -18 -113 -68 -140 -66 -35 -146 -12 -181 53
-25 44 -20 129 8 160 49 55 110 72 162 45z"/>
<path d="M7495 4289 c-34 -13 -92 -54 -117 -84 -58 -68 -64 -198 -12 -281 43
-70 108 -107 193 -112 57 -3 73 0 120 25 64 34 107 83 126 146 l14 47 -52 0
c-50 0 -53 -2 -72 -37 -30 -56 -80 -86 -132 -80 -24 2 -54 12 -68 21 -75 49
-76 191 0 240 56 37 130 29 175 -19 30 -32 38 -31 79 3 l33 27 -22 28 c-37 47
-104 79 -173 83 -34 2 -75 -1 -92 -7z"/>
<path d="M8073 4288 c-5 -7 -63 -115 -127 -240 l-117 -228 55 0 c52 0 57 2 71
30 l16 30 109 0 109 0 16 -30 c14 -28 20 -30 70 -30 30 0 55 2 55 4 0 1 -47
93 -104 202 -57 109 -112 216 -123 237 -15 30 -22 36 -30 25z m37 -248 l30
-60 -60 0 c-33 0 -60 2 -60 5 0 7 54 115 57 115 1 0 16 -27 33 -60z"/>
<path d="M8370 4061 l0 -241 50 0 49 0 3 136 3 136 60 -44 c33 -24 66 -48 73
-52 8 -5 38 11 83 43 38 28 72 51 74 51 3 0 5 -61 5 -135 l0 -135 50 0 50 0 0
241 c0 192 -3 239 -12 232 -7 -5 -61 -46 -120 -91 -59 -45 -112 -82 -118 -82
-6 0 -57 35 -113 78 -56 42 -109 83 -119 90 -17 13 -18 2 -18 -227z"/>
<path d="M9451 4066 c-66 -129 -121 -237 -121 -240 0 -3 24 -6 54 -6 50 0 54
2 66 30 l12 30 113 0 113 0 12 -30 c12 -29 15 -30 72 -30 l60 0 -20 33 c-10
17 -67 125 -126 240 -59 114 -109 207 -110 207 -2 0 -58 -105 -125 -234z m179
-78 c0 -5 -27 -8 -60 -8 l-60 0 31 62 31 62 29 -54 c15 -30 28 -58 29 -62z"/>
<path d="M9860 4061 l0 -241 55 0 54 0 3 126 3 127 157 -132 c87 -72 160 -131
163 -131 3 0 5 108 5 240 l0 240 -55 0 -55 0 0 -131 0 -130 -152 128 c-84 71
-159 132 -165 137 -10 6 -13 -44 -13 -233z"/>
<path d="M11073 4288 c-5 -7 -63 -115 -127 -240 l-117 -228 55 0 c52 0 57 2
71 30 l16 30 109 0 109 0 16 -30 c14 -28 20 -30 70 -30 30 0 55 2 55 4 0 1
-47 93 -104 202 -57 109 -112 216 -123 237 -15 30 -22 36 -30 25z m37 -248
l30 -60 -60 0 c-33 0 -60 2 -60 5 0 7 54 115 57 115 1 0 16 -27 33 -60z"/>
<path d="M3940 4055 l0 -235 50 0 50 0 0 34 0 34 64 4 c85 5 138 40 172 111
28 60 30 112 9 165 -39 91 -99 121 -242 122 l-103 0 0 -235z m222 106 c30 -34
37 -81 17 -124 -14 -31 -40 -46 -94 -54 l-45 -6 0 113 0 113 47 -6 c37 -4 54
-12 75 -36z"/>
<path d="M4360 4056 l0 -236 50 0 50 0 0 40 c0 34 3 40 21 40 12 0 37 -17 58
-41 l36 -40 69 3 69 3 -46 51 -46 51 30 23 c45 32 72 101 67 166 -5 61 -34
109 -86 145 -32 21 -48 24 -154 27 l-118 4 0 -236z m195 130 c40 -17 55 -42
55 -93 0 -50 -22 -80 -68 -93 -82 -23 -82 -23 -82 95 l0 105 30 0 c17 0 46 -6
65 -14z"/>
<path d="M5470 4245 l0 -45 45 0 45 0 0 -87 c0 -107 -13 -156 -47 -183 -47
-37 -136 -16 -149 35 -3 14 -11 25 -16 25 -29 0 -88 -25 -88 -37 0 -40 63
-113 113 -132 44 -17 127 -13 173 8 45 21 85 67 103 120 6 20 11 99 11 187 l0
154 -95 0 -95 0 0 -45z"/>
<path d="M5740 4055 l0 -235 150 0 150 0 0 45 0 45 -100 0 -100 0 0 55 0 55
90 0 90 0 0 50 0 50 -90 0 -90 0 0 40 0 40 80 0 80 0 0 45 0 45 -130 0 -130 0
0 -235z"/>
<path d="M6070 4245 l0 -45 55 0 55 0 0 -190 0 -190 55 0 55 0 0 190 0 190 60
0 60 0 0 45 0 45 -170 0 -170 0 0 -45z"/>
<path d="M7076 4006 c-80 -157 -146 -287 -146 -290 0 -3 20 -6 45 -6 l44 0
146 290 145 290 -44 0 -44 0 -146 -284z"/>
<path d="M8950 4055 l0 -235 55 0 55 0 0 34 0 34 64 4 c100 6 163 61 186 161
19 87 -21 172 -99 214 -38 20 -58 23 -153 23 l-108 0 0 -235z m230 110 c20
-20 25 -35 25 -75 0 -65 -30 -97 -98 -106 l-47 -7 0 113 0 113 47 -7 c32 -4
56 -15 73 -31z"/>
<path d="M10380 4055 l0 -235 55 0 55 0 0 100 0 100 100 0 100 0 0 -100 0
-100 55 0 55 0 0 235 0 235 -55 0 -55 0 0 -85 0 -85 -100 0 -100 0 0 85 0 85
-55 0 -55 0 0 -235z"/>
<path d="M3388 2538 l-3 -1203 -1202 -3 c-864 -1 -1203 -5 -1203 -13 0 -6 15
-26 33 -44 26 -26 44 -34 88 -40 29 -3 558 -5 1174 -3 1050 3 1123 4 1148 21
15 9 35 32 44 50 17 30 18 103 21 1170 2 796 -1 1151 -9 1179 -11 44 -49 88
-74 88 -13 0 -15 -127 -17 -1202z"/>
<path d="M5070 3441 l0 -241 50 0 49 0 3 136 3 136 60 -44 c33 -24 66 -48 73
-52 8 -5 38 11 83 43 38 28 72 51 74 51 3 0 5 -61 5 -135 l0 -135 50 0 50 0 0
241 c0 192 -3 239 -12 232 -7 -5 -61 -46 -120 -91 -59 -45 -112 -82 -118 -82
-6 0 -57 35 -113 78 -56 42 -109 83 -119 90 -17 13 -18 2 -18 -227z"/>
<path d="M6565 3657 c-117 -57 -170 -177 -133 -301 17 -56 100 -141 153 -155
145 -40 285 40 319 182 6 27 6 27 -46 27 -52 -1 -53 -1 -71 -39 -46 -101 -186
-106 -239 -10 -14 25 -18 48 -15 87 3 45 9 59 39 88 47 47 101 56 155 24 21
-12 42 -28 46 -36 4 -8 12 -14 18 -14 16 0 79 44 79 56 0 15 -60 69 -100 89
-19 10 -61 20 -95 22 -49 3 -69 0 -110 -20z"/>
<path d="M7085 3514 c-48 -93 -105 -202 -127 -241 l-39 -73 55 0 c51 0 57 2
71 30 l16 30 109 0 109 0 16 -30 c14 -28 20 -30 70 -30 30 0 55 3 55 6 0 6
-190 375 -226 438 l-22 38 -87 -168z m117 -91 l25 -58 -28 -3 c-16 -2 -42 -2
-59 0 l-29 3 26 58 c14 31 29 57 33 57 4 0 19 -26 32 -57z"/>
<path d="M8108 3665 c-98 -36 -160 -125 -160 -230 0 -140 104 -245 242 -245
183 0 298 187 216 353 -54 111 -183 164 -298 122z m136 -99 c102 -42 112 -190
17 -253 -94 -63 -220 19 -208 136 6 52 31 90 78 113 41 22 69 22 113 4z"/>
<path d="M3940 3435 l0 -235 128 0 c146 0 184 12 245 75 35 36 67 111 67 157
0 59 -25 115 -74 163 -64 64 -101 75 -250 75 l-116 0 0 -235z m270 117 c39
-29 62 -80 57 -131 -9 -83 -70 -131 -169 -131 l-58 0 0 146 0 147 72 -6 c47
-4 81 -13 98 -25z"/>
<path d="M4440 3435 l0 -235 150 0 150 0 0 45 0 45 -95 0 -95 0 0 55 0 55 85
0 85 0 0 50 0 50 -85 0 -85 0 0 40 0 40 75 0 75 0 0 45 0 45 -130 0 -130 0 0
-235z"/>
<path d="M5650 3435 l0 -235 150 0 150 0 0 45 0 45 -95 0 -95 0 0 55 0 55 85
0 85 0 0 50 0 50 -85 0 -85 0 0 40 0 40 75 0 75 0 0 45 0 45 -130 0 -130 0 0
-235z"/>
<path d="M6010 3435 l0 -235 40 0 c22 0 40 -2 40 -5 0 -3 -13 -27 -30 -53 -16
-27 -30 -52 -30 -56 0 -3 19 -6 43 -6 38 0 44 4 69 42 l26 41 -24 19 c-18 15
-24 29 -24 59 0 52 23 52 75 -1 38 -39 41 -40 108 -40 l69 0 -46 52 -45 51 39
38 c71 69 77 183 13 260 -45 53 -93 69 -215 69 l-108 0 0 -235z m199 134 c51
-18 76 -86 50 -142 -14 -31 -40 -46 -94 -54 l-45 -6 0 107 0 106 29 0 c15 0
42 -5 60 -11z"/>
<path d="M7460 3435 l0 -235 125 0 c135 0 170 8 233 57 45 34 82 114 82 179 0
95 -67 187 -159 220 -22 8 -85 13 -158 14 l-123 0 0 -235z m265 121 c46 -30
67 -75 62 -134 -6 -86 -66 -132 -172 -132 l-55 0 0 146 0 147 70 -5 c41 -3 80
-12 95 -22z"/>
<path d="M3990 3042 c-68 -37 -93 -125 -55 -190 20 -33 54 -53 125 -74 34 -10
47 -20 54 -40 19 -54 -50 -89 -102 -52 -21 14 -25 13 -62 -13 -22 -15 -40 -31
-40 -35 0 -4 19 -20 42 -35 35 -24 52 -28 109 -28 81 0 112 18 147 85 27 54
27 82 2 137 -20 46 -64 73 -145 90 -33 7 -41 12 -43 35 -4 32 28 47 64 28 20
-11 27 -10 59 14 19 15 35 31 35 36 0 5 -14 19 -31 31 -44 31 -114 36 -159 11z"/>
<path d="M4435 3049 c-102 -38 -165 -127 -165 -234 0 -70 23 -126 70 -173 46
-46 85 -64 155 -70 116 -9 216 60 251 173 47 148 -60 302 -218 311 -35 2 -76
-1 -93 -7z m154 -116 c58 -43 77 -131 41 -191 -30 -49 -76 -74 -127 -69 -79 8
-125 60 -125 143 0 114 122 182 211 117z"/>
<path d="M5931 2826 c-66 -129 -121 -237 -121 -240 0 -3 24 -6 54 -6 50 0 54
2 66 30 l12 30 113 0 113 0 12 -30 c12 -29 15 -30 72 -30 l60 0 -20 33 c-10
17 -67 125 -126 240 -59 114 -109 207 -110 207 -2 0 -58 -105 -125 -234z m179
-78 c0 -5 -27 -8 -60 -8 l-60 0 31 62 31 62 29 -54 c15 -30 28 -58 29 -62z"/>
<path d="M7096 3045 c-53 -19 -85 -44 -119 -91 -118 -167 14 -398 218 -382 70
6 109 24 155 70 47 47 70 103 70 173 0 77 -24 129 -83 181 -70 62 -156 80
-241 49z m140 -101 c91 -43 103 -195 19 -250 -41 -26 -105 -28 -143 -5 -93 59
-95 187 -3 248 40 27 80 29 127 7z"/>
<path d="M7896 3045 c-53 -19 -85 -44 -119 -91 -118 -167 14 -398 218 -382 70
6 109 24 155 70 47 47 70 103 70 173 0 77 -24 129 -83 181 -70 62 -156 80
-241 49z m140 -101 c91 -43 103 -195 19 -250 -41 -26 -105 -28 -143 -5 -93 59
-95 187 -3 248 40 27 80 29 127 7z"/>
<path d="M8290 2821 l0 -241 50 0 49 0 3 129 3 129 125 -105 c69 -57 142 -118
163 -135 l37 -30 0 241 0 241 -50 0 -49 0 -3 -130 -3 -130 -110 92 c-61 51
-134 113 -163 136 l-52 44 0 -241z"/>
<path d="M9330 2820 l0 -240 55 0 55 0 0 125 c0 69 3 125 6 125 3 0 69 -53
147 -117 78 -65 150 -124 160 -132 16 -13 17 0 17 228 l0 241 -50 0 -49 0 -3
-132 -3 -131 -162 136 c-89 75 -164 137 -167 137 -3 0 -6 -108 -6 -240z"/>
<path d="M4820 2815 l0 -235 145 0 145 0 0 45 0 45 -90 0 -90 0 0 190 0 190
-55 0 -55 0 0 -235z"/>
<path d="M5160 2815 l0 -235 55 0 55 0 0 235 0 235 -55 0 -55 0 0 -235z"/>
<path d="M5350 2815 l0 -235 125 0 c135 0 170 8 233 57 45 34 82 114 82 179 0
95 -67 187 -159 220 -22 8 -85 13 -158 14 l-123 0 0 -235z m265 121 c46 -30
67 -75 62 -134 -6 -86 -66 -132 -172 -132 l-55 0 0 146 0 147 70 -5 c41 -3 80
-12 95 -22z"/>
<path d="M6340 2816 l0 -236 50 0 50 0 0 40 c0 35 3 40 24 40 15 0 37 -15 60
-40 36 -40 37 -40 108 -40 l72 0 -52 53 -52 52 36 29 c44 35 64 80 64 146 0
66 -29 123 -82 157 -38 26 -50 28 -160 31 l-118 4 0 -236z m228 109 c24 -29
30 -91 11 -127 -13 -24 -67 -48 -109 -48 l-30 0 0 106 0 107 53 -6 c39 -5 58
-13 75 -32z"/>
<path d="M6760 2815 l0 -235 55 0 55 0 0 235 0 235 -55 0 -55 0 0 -235z"/>
<path d="M8810 2815 l0 -235 145 0 145 0 0 45 0 45 -95 0 -95 0 0 190 0 190
-50 0 -50 0 0 -235z"/>
<path d="M9150 2815 l0 -235 50 0 50 0 0 235 0 235 -50 0 -50 0 0 -235z"/>
<path d="M9850 2815 l0 -235 150 0 150 0 0 45 0 45 -95 0 -95 0 0 55 0 55 85
0 85 0 0 50 0 50 -85 0 -85 0 0 40 0 40 75 0 75 0 0 45 0 45 -130 0 -130 0 0
-235z"/>
<path d="M1990 2921 c-19 -10 -50 -37 -67 -60 -29 -38 -33 -50 -33 -105 0 -80
13 -99 160 -246 87 -86 117 -110 139 -110 21 0 53 27 158 133 142 143 151 159
140 253 -6 53 -45 107 -97 135 -43 23 -129 25 -170 4 -27 -14 -33 -14 -60 0
-40 21 -127 19 -170 -4z"/>
<path d="M1522 2294 c-33 -23 -25 -55 20 -79 47 -25 48 -37 4 -34 -41 4 -54
-5 -36 -26 18 -21 83 -19 103 3 30 33 13 70 -40 86 -35 11 -27 26 12 26 37 0
43 8 23 28 -17 17 -59 15 -86 -4z"/>
<path d="M1675 2285 c-17 -16 -25 -35 -25 -60 0 -25 8 -44 25 -60 49 -50 145
-17 145 50 0 33 -24 81 -45 89 -35 13 -76 6 -100 -19z m88 -36 c5 -9 7 -28 3
-43 -5 -22 -11 -27 -34 -24 -21 2 -28 9 -30 31 -2 16 -1 35 2 44 7 18 46 13
59 -8z"/>
<path d="M1846 2295 c-12 -32 -6 -132 8 -144 21 -18 101 -10 101 9 0 10 -12
16 -32 18 -32 3 -32 3 -35 65 -2 48 -7 63 -19 65 -9 2 -19 -4 -23 -13z"/>
<path d="M1984 2285 c-7 -29 -1 -132 9 -141 3 -4 13 -4 22 0 24 9 18 159 -7
164 -12 2 -19 -5 -24 -23z"/>
<path d="M2074 2297 c-3 -8 -4 -45 -2 -83 l3 -69 47 -3 c37 -2 51 1 67 17 43
43 35 117 -15 140 -34 15 -93 14 -100 -2z m89 -48 c5 -9 7 -28 3 -42 -5 -20
-13 -27 -31 -27 -23 0 -25 4 -25 46 0 41 2 45 21 42 12 -2 26 -10 32 -19z"/>
<path d="M2276 2288 c-19 -30 -47 -128 -40 -139 9 -16 33 -10 44 11 6 11 19
20 30 20 11 0 24 -9 30 -20 11 -20 35 -27 44 -12 7 11 -35 145 -48 154 -21 14
-46 8 -60 -14z m44 -59 c0 -11 -4 -17 -10 -14 -5 3 -10 13 -10 21 0 8 5 14 10
14 6 0 10 -9 10 -21z"/>
<path d="M2422 2301 c-9 -5 -12 -29 -10 -82 3 -66 5 -74 23 -74 13 0 21 8 23
23 4 29 16 28 36 -3 17 -26 40 -33 51 -14 4 5 -1 19 -11 30 -13 15 -15 22 -6
31 20 20 15 76 -7 88 -23 12 -81 13 -99 1z m73 -51 c0 -8 -8 -16 -17 -18 -13
-2 -18 3 -18 18 0 15 5 20 18 18 9 -2 17 -10 17 -18z"/>
<path d="M2580 2226 c0 -80 1 -86 20 -86 20 0 21 5 18 82 -3 70 -6 83 -20 86
-16 3 -18 -6 -18 -82z"/>
<path d="M2657 2303 c-13 -13 -7 -31 12 -36 16 -4 20 -15 23 -63 3 -51 6 -59
23 -59 18 0 20 8 23 63 3 54 6 62 22 62 13 0 20 7 20 20 0 18 -7 20 -58 20
-32 0 -62 -3 -65 -7z"/>
<path d="M2812 2228 c3 -70 6 -83 21 -86 16 -3 18 4 15 80 -3 70 -6 83 -21 86
-16 3 -18 -4 -15 -80z"/>
<path d="M9768 814 c-55 -29 -41 -105 22 -119 36 -8 46 -21 30 -40 -9 -11 -17
-12 -32 -4 -16 9 -24 7 -41 -9 l-20 -20 32 -17 c59 -30 121 4 121 65 0 35 -19
59 -54 68 -38 10 -46 32 -13 32 31 0 53 23 35 37 -24 20 -53 22 -80 7z"/>
<path d="M10072 798 c2 -15 10 -23 23 -23 13 0 21 8 23 23 3 18 -1 22 -23 22
-22 0 -26 -4 -23 -22z"/>
<path d="M10140 711 l0 -108 47 -6 c72 -8 112 21 113 79 0 40 -39 77 -80 76
-28 -1 -30 2 -30 34 0 30 -3 34 -25 34 l-25 0 0 -109z m107 -27 c3 -8 -2 -23
-11 -32 -15 -15 -17 -15 -32 0 -21 21 -11 48 16 48 11 0 23 -7 27 -16z"/>
<path d="M11064 805 c-10 -24 12 -42 34 -29 24 16 21 38 -6 42 -13 2 -25 -3
-28 -13z"/>
<path d="M11902 798 c4 -30 43 -33 43 -3 0 13 -8 21 -23 23 -20 3 -23 0 -20
-20z"/>
<path d="M13564 805 c-10 -24 12 -42 34 -29 24 16 21 38 -6 42 -13 2 -25 -3
-28 -13z"/>
<path d="M13653 774 c-32 -30 -44 -64 -23 -64 6 0 10 -11 10 -25 0 -40 21 -73
53 -85 39 -13 37 -14 37 14 0 16 -7 27 -20 31 -14 4 -20 15 -20 36 0 22 5 29
20 29 13 0 20 7 20 20 0 13 -7 20 -19 20 -14 0 -21 8 -23 28 l-3 27 -32 -31z"/>
<path d="M9936 745 c-33 -17 -52 -59 -41 -91 16 -44 52 -64 108 -57 l47 6 0
72 0 73 -46 4 c-26 2 -56 -1 -68 -7z m62 -71 c4 -27 -26 -40 -46 -20 -21 20
-8 48 20 44 14 -2 24 -11 26 -24z"/>
<path d="M10361 748 c-26 -9 -51 -48 -51 -78 1 -52 44 -80 113 -73 l47 6 0 72
0 73 -45 4 c-25 2 -54 0 -64 -4z m56 -64 c3 -8 -2 -23 -11 -32 -15 -15 -17
-15 -32 0 -21 21 -11 48 16 48 11 0 23 -7 27 -16z"/>
<path d="M10653 752 l-43 -3 0 -75 c0 -72 1 -74 24 -74 23 0 25 5 28 47 2 37
7 49 22 51 24 5 36 -14 36 -60 0 -34 3 -38 25 -38 23 0 25 3 25 51 0 47 2 50
23 47 19 -3 22 -10 25 -50 3 -43 5 -48 28 -48 22 0 24 3 24 54 0 80 -34 111
-102 93 -15 -4 -37 -4 -50 1 -13 4 -42 6 -65 4z"/>
<path d="M10926 745 c-33 -17 -52 -59 -41 -91 16 -44 52 -64 108 -57 l47 6 0
72 0 73 -46 4 c-26 2 -56 -1 -68 -7z m62 -71 c4 -27 -26 -40 -46 -20 -21 20
-8 48 20 44 14 -2 24 -11 26 -24z"/>
<path d="M11421 748 c-26 -9 -51 -48 -51 -78 1 -52 44 -80 113 -73 l47 6 0 72
0 73 -45 4 c-25 2 -54 0 -64 -4z m56 -64 c3 -8 -2 -23 -11 -32 -15 -15 -17
-15 -32 0 -21 21 -11 48 16 48 11 0 23 -7 27 -16z"/>
<path d="M11591 748 c-26 -9 -51 -47 -51 -76 0 -13 14 -37 30 -54 24 -23 36
-29 55 -24 23 6 25 4 25 -29 0 -31 3 -35 25 -35 l25 0 0 109 0 109 -45 4 c-25
2 -54 0 -64 -4z m57 -74 c4 -27 -26 -40 -46 -20 -21 20 -8 48 20 44 14 -2 24
-11 26 -24z"/>
<path d="M12133 752 l-43 -3 0 -75 c0 -72 1 -74 25 -74 22 0 25 4 25 39 0 47
24 78 46 60 8 -7 14 -30 14 -55 0 -40 2 -44 25 -44 24 0 25 3 25 53 -1 80 -31
105 -117 99z"/>
<path d="M12323 752 c-29 -4 -63 -48 -63 -79 0 -28 50 -83 75 -83 24 0 72 27
79 45 9 24 7 64 -4 85 -11 21 -55 37 -87 32z m47 -77 c0 -31 -26 -43 -47 -22
-21 21 -9 47 22 47 20 0 25 -5 25 -25z"/>
<path d="M12613 752 l-43 -3 0 -75 c0 -72 1 -74 25 -74 23 0 25 3 25 49 0 31
5 51 13 54 27 9 37 -6 37 -54 0 -46 2 -49 25 -49 24 0 25 3 25 53 0 56 -17 92
-47 98 -10 2 -37 3 -60 1z"/>
<path d="M12783 745 c-42 -18 -57 -62 -35 -106 32 -61 110 -59 141 5 30 63
-39 129 -106 101z m61 -60 c7 -20 -18 -49 -38 -42 -19 7 -22 53 -3 60 17 6 34
-2 41 -18z"/>
<path d="M13053 747 c-13 -5 -25 -18 -28 -27 -6 -19 3 -50 14 -50 4 0 16 -7
27 -15 11 -9 13 -13 4 -10 -18 6 -54 -20 -46 -33 12 -19 58 -23 82 -7 29 19
33 69 7 84 -14 7 -15 12 -4 25 24 28 -15 51 -56 33z"/>
<path d="M13203 752 c-29 -4 -63 -48 -63 -79 0 -28 50 -83 75 -83 24 0 72 27
79 45 9 24 7 64 -4 85 -11 21 -55 37 -87 32z m47 -77 c0 -31 -26 -43 -47 -22
-21 21 -9 47 22 47 20 0 25 -5 25 -25z"/>
<path d="M13793 752 c-28 -4 -63 -47 -63 -77 0 -31 34 -71 66 -79 32 -8 84 11
84 30 0 7 -8 18 -17 24 -17 9 -16 11 5 30 19 15 21 23 13 39 -12 22 -56 38
-88 33z m11 -66 c-21 -15 -30 -14 -19 3 3 6 14 11 23 11 13 0 13 -2 -4 -14z"/>
<path d="M10070 675 c0 -73 1 -75 25 -75 24 0 25 2 25 75 0 73 -1 75 -25 75
-24 0 -25 -2 -25 -75z"/>
<path d="M11060 675 c0 -73 1 -75 25 -75 24 0 25 2 25 75 0 73 -1 75 -25 75
-24 0 -25 -2 -25 -75z"/>
<path d="M11140 736 c-17 -22 -8 -60 18 -71 23 -10 32 -28 9 -19 -7 2 -21 -4
-30 -14 -16 -18 -16 -19 9 -30 31 -15 71 -6 84 18 14 27 12 38 -11 61 -16 16
-18 23 -9 34 7 8 9 19 5 25 -9 15 -61 12 -75 -4z"/>
<path d="M11720 695 c0 -47 4 -60 26 -82 20 -20 32 -24 56 -19 17 3 41 6 54 6
23 0 24 3 24 75 0 73 -1 75 -25 75 -22 0 -25 -4 -25 -38 0 -46 -20 -78 -44
-69 -12 5 -16 19 -16 57 0 47 -2 50 -25 50 -24 0 -25 -3 -25 -55z"/>
<path d="M11900 675 c0 -73 1 -75 25 -75 24 0 25 2 25 75 0 73 -1 75 -25 75
-24 0 -25 -2 -25 -75z"/>
<path d="M12920 736 c-17 -22 -8 -60 18 -71 23 -10 32 -28 9 -19 -7 2 -21 -4
-30 -14 -16 -18 -16 -19 9 -30 31 -15 71 -6 84 18 14 27 12 38 -11 61 -16 16
-18 23 -9 34 7 8 9 19 5 25 -9 15 -61 12 -75 -4z"/>
<path d="M13450 736 c-17 -22 -8 -60 18 -71 23 -10 32 -28 9 -19 -7 2 -21 -4
-30 -14 -16 -18 -16 -19 9 -30 31 -15 71 -6 84 18 14 27 12 38 -11 61 -16 16
-18 23 -9 34 7 8 9 19 5 25 -9 15 -61 12 -75 -4z"/>
<path d="M13560 675 c0 -73 1 -75 25 -75 24 0 25 2 25 75 0 73 -1 75 -25 75
-24 0 -25 -2 -25 -75z"/>
</g>
</svg>
